<svg xmlns="http://www.w3.org/2000/svg" xmlns:xlink="http://www.w3.org/1999/xlink" viewBox="0 0 149 123"><defs><style>.a,.f{fill:#fff;}.a{stroke:#707070;}.b,.h,.i,.k,.l{fill:none;}.c{clip-path:url(#a);}.d{fill:#f77b55;}.e{clip-path:url(#b);}.g{fill:#474f59;}.h,.i{stroke:#fff;}.h,.k{stroke-miterlimit:10;}.h,.i,.k,.l{stroke-width:3.844px;}.i,.l{stroke-linejoin:round;}.j{fill:#fdca5c;}.k,.l{stroke:#474f59;}</style><clipPath id="a"><ellipse class="a" cx="74.5" cy="61.5" rx="74.5" ry="61.5" transform="translate(113 713)"/></clipPath><clipPath id="b"><path class="b" d="M123,61.5A61.5,61.5,0,1,1,61.5,0,61.5,61.5,0,0,1,123,61.5Z"/></clipPath></defs><g class="c" transform="translate(-113 -713)"><g transform="translate(126 713)"><circle class="d" cx="61.5" cy="61.5" r="61.5"/><g class="e"><path class="f" d="M99.938,49.969A36.516,36.516,0,1,1,63.422,13.453,36.516,36.516,0,0,1,99.938,49.969Z"/><rect class="f" width="19.219" height="28.828" transform="translate(26.906 49.969)"/><path class="f" d="M30.75,78.8H17.3l9.609-24.984Z"/><path class="f" d="M75.914,99.938H28.828L26.906,78.8l53.813-3.844Z"/><path class="f" d="M93.211,121.078,47.086,132.609V97.055l39.4-16.336Z"/><path class="f" d="M73.031,93.249l14.414-5.8L98.016,61.5,73.031,65.344Z"/></g><path class="g" d="M69.188,89.367A37.284,37.284,0,0,0,90.328,123a37.275,37.275,0,0,0,21.141-33.633Z"/><path class="g" d="M104.742,71.109a28.953,28.953,0,0,1-28.828,0l-6.727,2.883V89.367h42.281V73.992Z"/><path class="h" d="M77.836,84.563a3.844,3.844,0,0,0,7.688,0"/><path class="h" d="M95.133,84.563a3.844,3.844,0,0,0,7.688,0"/><path class="i" d="M82.641,107.625a7.688,7.688,0,0,1,15.375,0Z"/><path class="j" d="M40.359,58.617A37.284,37.284,0,0,0,61.5,92.25,37.275,37.275,0,0,0,82.641,58.617Z"/><path class="j" d="M75.914,40.359a28.953,28.953,0,0,1-28.828,0l-6.727,2.883V58.617H82.641V43.242Z"/><path class="k" d="M49.008,58.617a3.844,3.844,0,0,1,7.688,0"/><path class="k" d="M66.3,58.617a3.844,3.844,0,0,1,7.688,0"/><path class="l" d="M53.813,69.188a7.688,7.688,0,0,0,15.375,0Z"/><circle class="g" cx="4.805" cy="4.805" r="4.805" transform="translate(91.289 28.828)"/><circle class="f" cx="2.883" cy="2.883" r="2.883" transform="translate(100.898 61.5)"/><circle class="g" cx="0.961" cy="0.961" r="0.961" transform="translate(90.328 48.047)"/><circle class="j" cx="1.922" cy="1.922" r="1.922" transform="translate(78.797 25.945)"/><circle class="g" cx="1.922" cy="1.922" r="1.922" transform="translate(52.852 92.25)"/><circle class="j" cx="2.883" cy="2.883" r="2.883" transform="translate(58.617 98.016)"/></g></g></svg>