<svg xmlns="http://www.w3.org/2000/svg" viewBox="0 0 100.042 100.042"><defs><style>.a{fill:#bf83b6;}.b{fill:#528c9e;}.c{fill:#fff;}.d{fill:#ff757c;}.e{fill:#64adc3;}</style></defs><g transform="translate(0)"><path class="a" d="M50.021,100.042A50.021,50.021,0,1,0,0,50.021,50.117,50.117,0,0,0,50.021,100.042Z"/><path class="b" d="M104.826,91.52v55.219l12.152-10.674V80.846H115.4l-.842.642h-7.988l0-.653-1.314.011L93.1,91.519h11.728Z" transform="translate(-74.907 -65.04)"/><path class="c" d="M101.667,94.209h8.674L121.45,84.177h-8.674Z" transform="translate(-81.802 -67.729)"/><path class="d" d="M107.9,121l-1.439-.022-3.01,2.719H94.775l3.152-2.847-1.559-.023L93.1,123.7v55.219h11.727l3.07-2.7V121Z" transform="translate(-74.909 -97.221)"/><path class="e" d="M201.392,91.522V146.74l12.151-10.674V80.847h-1.581l-.841.643h-7.987l0-.653-1.315.01L189.664,91.521h11.728Z" transform="translate(-152.605 -65.042)"/><path class="c" d="M198.233,94.209h8.674l11.109-10.032h-8.674Z" transform="translate(-159.499 -67.729)"/><path class="d" d="M204.462,121l-1.439-.022-3.01,2.719h-8.674l3.152-2.847-1.559-.023-3.267,2.87v55.219h11.727l3.07-2.7V121Z" transform="translate(-152.605 -97.221)"/><path class="b" d="M297.226,70.85l-9,13.44,14.2,53.36,9-13.44-14.2-53.36-1.528.407-.648.837-7.719,2.055-.17-.63-1.267.348-9,13.44,11.332-3.017Z" transform="translate(-222.792 -57.006)"/><path class="c" d="M285.174,92l8.382-2.231,8.154-12.552-8.382,2.231L285.174,92h0Z" transform="translate(-229.453 -62.128)"/><path class="d" d="M290.5,122.255l-1.4.35-2.21,3.4-8.382,2.231,2.314-3.561-1.512.378-2.419,3.614,14.2,53.36,11.333-3.017,2.273-3.395-14.2-53.361Z" transform="translate(-222.795 -98.367)"/><g transform="translate(70.578 25.37)"><path class="c" d="M370.769,135.58l-.713-2.715-5.028,8.221.713,2.715,5.028-8.221Z" transform="translate(-364.281 -132.274)"/><path class="c" d="M364.979,131.605l-.379-1.764-3.393,5.549.379,1.764,3.393-5.548h0Z" transform="translate(-361.207 -129.841)"/></g></g></svg>