<svg xmlns="http://www.w3.org/2000/svg" viewBox="0 0 100.101 100.101"><defs><style>.a{fill:#bf83b6;}.b{fill:#94658d;}.c{fill:#9650aa;}.d{fill:#7a3eb5;}.e{fill:#64adc3;}.f{fill:#528c9e;}.g{fill:#ffda45;}.h{fill:#ffbc36;}.i{fill:#f97b14;}.j{fill:#b95d12;}</style></defs><g transform="translate(0)"><circle class="a" cx="50.05" cy="50.05" r="50.05"/><path class="b" d="M190.2,98.32a50.214,50.214,0,0,0-1.195-10.905l-20.7-20.7-5.2,9.2L147.192,60,112,132.273l14.091,14.091A50.081,50.081,0,0,0,190.2,98.32Z" transform="translate(-90.103 -48.269)"/><rect class="c" width="56.307" height="65.56" transform="translate(21.897 18.442)"/><g transform="translate(26.231 18.442)"><rect class="d" width="28.153" height="65.56" transform="translate(23.819)"/><rect class="e" width="47.638" height="55.468" transform="translate(0 5.048)"/></g><rect class="f" width="23.819" height="55.468" transform="translate(50.05 23.49)"/><path class="g" d="M172.29,151.039l6.286,12.738,14.057,2.043-10.172,9.915,2.4,14-12.573-6.61-12.573,6.61,2.4-14-10.172-9.915L166,163.777Z" transform="translate(-122.24 -121.51)"/><path class="h" d="M276.343,165.82l-14.057-2.043L256,151.04v32.085l12.573,6.61-2.4-14Z" transform="translate(-205.95 -121.51)"/><rect class="i" width="14.077" height="11.76" transform="translate(43.012 11.731)"/><rect class="j" width="7.038" height="11.76" transform="translate(50.05 11.731)"/></g></svg>