<svg xmlns="http://www.w3.org/2000/svg" viewBox="0 0 100 100"><defs><style>.a{fill:#bf83b6;}.b{fill:#666;}.c{fill:#fed198;}.d{fill:#f0b97d;}.e{fill:#0e7886;}.f{fill:#fff;}.g{fill:#528c9e;}.h{fill:#dfe1e3;}.i{fill:#64adc3;}</style></defs><g transform="translate(-267 -690)"><g transform="translate(267 690)"><path class="a" d="M50,0A50,50,0,1,1,0,50,50,50,0,0,1,50,0Z" transform="translate(-0.001)"/><path class="b" d="M164.4,63.457c2.818-4.737,7.259-10.235,2.749-18.594C160.506,15.835,191.1,9.95,195.728,21.93c7.528,2.838,7.327,18.464,3.456,26.641-.173,3.364-3.671,6.3,2.651,14.98l.455-.1h0C194.088,65.828,173.066,64.734,164.4,63.457Z" transform="translate(-133.897 -12.65)"/><path class="c" d="M152.221,209.017c-.282,5.2-2.127,7.161-4.685,8.528-1.3,1.15-11.1,1.458-13.961,6.082-.6.964-.9,11.113-2.555,15.808,11.972,7.841,41.47,7.841,53.443,0-1.652-4.695-1.51-14.843-2.108-15.807-3.024-4.883-13.317-4.94-14.515-5.938-2.5-1.4-4.3-3.46-4.578-8.673,0,0-3.74,2.9-6.065,2.455A14.913,14.913,0,0,1,152.221,209.017Z" transform="translate(-107.742 -170.111)"/><path class="d" d="M229.594,212.408c1.363.811,3.636,3.348,5.763,3.377s5.1-3.105,5.531-3.336q-.055-.443-.092-.923l-.035.027h0c-.114.09-3.773,2.948-6.062,2.5a14.722,14.722,0,0,1-4.969-2.5l-.043-.033C229.659,211.83,229.629,212.125,229.594,212.408Z" transform="translate(-185.24 -170.37)"/><path class="c" d="M187.438,102.117c2.307,4.94,3.16,6.869,6.026,9.09a14.831,14.831,0,0,0,4.977,2.5c2.325.454,6.065-2.5,6.065-2.5,2.866-2.221,3.718-4.15,6.025-9.09.566.3,1.157.71,1.616.183s2.644-7.361,2.251-8.283-.777-.334-1.362.083c.031-.2-.463,2.47-.456,2.064.055-3.226-2.212-3.739-2.923-12.275C199.2,94.264,189.431,89.5,186.028,90.2c-.986.2-1.276,2.726-1.094,3.9-3.691-2.634.794,8.092.888,8.2.46.527,1.05.118,1.616-.183h0Z" transform="translate(-148.982 -68.087)"/><path class="e" d="M137.2,248.841c-2.935,1.878-8.308-.391-11.657,6.083-.5.964-2.407,11.113-3.786,15.808,10,9.231,37.936,9.285,47.934,0-1.379-4.695-2.915-14.844-3.413-15.808-3.356-6.493-9.117-4.209-12.055-6.1l-8.192,20.054-8.83-20.04h0Z" transform="translate(-95.726 -201.875)"/><g transform="translate(19.282 53.713)"><path class="f" d="M229.911,289.848a20.445,20.445,0,0,0,11.466,0l-5.521,11.285Z" transform="translate(-204.771 -287.477)"/><path class="f" d="M112.327,279.458c18.943-2.476,26.483,2.277,30.718,6.02-6.3-3.625-18.38-3.385-30.186-1.276Z" transform="translate(-112.327 -278.772)"/><path class="f" d="M286.719,279.457c-18.943-2.476-26.482,2.276-30.719,6.019,7.512-4.325,21.628-2.773,30.176-1.208Z" transform="translate(-225.282 -278.772)"/></g><path class="g" d="M90.479,297.987c11.571-3.044,24.539-4.005,30.831.177,6.293-4.182,18.907-3.221,30.479-.177-.663,26.28-.11,4.346-.993,39.423-.678-.147-18.966-3.288-27.806-.225H119.7c-9.706-3.259-27.591.087-28.228.225C90.559,301.193,91.163,325.215,90.479,297.987Z" transform="translate(-71.134 -241.678)"/><g transform="translate(16.297 56.113)"><path class="h" d="M98.368,290.223l.2,2.088c12.9-2.739,26.923-3.45,33.878.554h0c-.025-.019-10.328-7.766-34.081-2.643Z" transform="translate(-98.368 -288.471)"/><path class="h" d="M288.312,290.765l-.2,2.088c-12.9-2.739-26.923-3.45-33.878.554h0c.025-.018,10.328-7.766,34.082-2.643h0Z" transform="translate(-220.906 -288.898)"/></g><path class="c" d="M93.292,357.756l-3.721.2-3.7.262c-1.533.109-1.277,2.855.25,2.674l4.037-.478,3.066-.258C94.754,360.026,94.322,357.7,93.292,357.756Zm-.512,8.541h0l-5.771.675c-1.238.144-.939,2.9.25,2.673l5.788-1.113C94.258,368.3,94,366.155,92.781,366.3Zm.734-2.994h0a1.221,1.221,0,0,1,.318,2.417l-7.306.933c-1.526.2-1.781-2.53-.25-2.673Zm1.02-2.988h0a1.343,1.343,0,1,1,.25,2.673l-8.491.8a1.343,1.343,0,1,1-.25-2.673Z" transform="translate(-68.431 -288.689)"/><g transform="translate(23.401 69.597)"><path class="f" d="M122.2,359.923l.131,1.4.932-.088a2,2,0,0,0-.14-1.494l-.923.184Z" transform="translate(-121.763 -359.738)"/><path class="f" d="M129.684,372.047l.148,1.587.87-.081a1.41,1.41,0,0,0-.159-1.7l-.86.191Z" transform="translate(-127.648 -369.264)"/><path class="f" d="M124.253,385.9l.131,1.4,1.067-.1a2.4,2.4,0,0,0-.14-1.494Z" transform="translate(-123.379 -380.151)"/><path class="f" d="M120.163,400.1l.17,1.105,1.07-.183a1.533,1.533,0,0,0-.182-1.183l-1.058.26Z" transform="translate(-120.163 -391.268)"/></g><path class="c" d="M377.551,357.756l3.721.2,3.7.262c1.533.109,1.277,2.855-.25,2.674l-4.037-.478-3.066-.258C376.089,360.026,376.521,357.7,377.551,357.756Zm.511,8.541h0l5.771.675c1.238.144.939,2.9-.25,2.673l-5.788-1.113C376.585,368.3,376.841,366.155,378.062,366.3Zm-.734-2.994h0a1.221,1.221,0,0,0-.318,2.417l7.306.933c1.526.2,1.781-2.53.25-2.673Zm-1.02-2.988h0a1.343,1.343,0,1,0-.25,2.673l8.491.8a1.343,1.343,0,1,0,.25-2.673Z" transform="translate(-302.412 -288.689)"/><g transform="translate(73.335 69.597)"><path class="f" d="M385.578,359.923l-.131,1.4-.932-.088a2,2,0,0,1,.14-1.494l.923.184Z" transform="translate(-382.75 -359.738)"/><path class="f" d="M377.8,372.047l-.148,1.587-.87-.081a1.41,1.41,0,0,1,.159-1.7l.86.191Z" transform="translate(-376.57 -369.264)"/><path class="f" d="M383.125,385.9l-.131,1.4-1.067-.1a2.4,2.4,0,0,1,.14-1.494Z" transform="translate(-380.735 -380.151)"/><path class="f" d="M387.111,400.1l-.17,1.105-1.07-.183a1.533,1.533,0,0,1,.182-1.183l1.058.26Z" transform="translate(-383.847 -391.268)"/></g><path class="i" d="M248.45,304.392h3.757v39.894H248.45Z" transform="translate(-200.088 -248.78)"/></g></g></svg>