<svg xmlns="http://www.w3.org/2000/svg" xmlns:xlink="http://www.w3.org/1999/xlink" viewBox="0 0 149 123"><defs><style>.a,.f{fill:#fff;}.a{stroke:#707070;}.b,.g{fill:none;}.c{clip-path:url(#a);}.d{fill:#474f59;}.e{clip-path:url(#b);}.g{stroke:#474f59;stroke-miterlimit:10;stroke-width:1.922px;}.h{fill:#e6e5e5;}.i{fill:#cccbca;}</style><clipPath id="a"><ellipse class="a" cx="74.5" cy="61.5" rx="74.5" ry="61.5" transform="translate(113 2251)"/></clipPath><clipPath id="b"><path class="b" d="M123,61.5A61.5,61.5,0,1,1,61.5,0,61.5,61.5,0,0,1,123,61.5Z"/></clipPath></defs><g class="c" transform="translate(-113 -2251)"><g transform="translate(126 2251)"><circle class="d" cx="61.5" cy="61.5" r="61.5"/><g class="e"><path class="f" d="M99.938,49.969A36.516,36.516,0,1,1,63.422,13.453,36.516,36.516,0,0,1,99.938,49.969Z"/><rect class="f" width="19.219" height="28.828" transform="translate(26.906 49.969)"/><path class="f" d="M30.75,78.8H17.3l9.609-24.984Z"/><path class="f" d="M75.914,99.938H28.828L26.906,78.8l53.813-3.844Z"/><path class="f" d="M93.211,121.078,47.086,132.609V97.055l39.4-16.336Z"/><path class="f" d="M73.031,93.249l14.414-5.8L98.016,61.5,73.031,65.344Z"/></g><line class="g" y2="9.609" transform="translate(49.008 64.383)"/><line class="g" y2="2.883" transform="translate(49.008 59.578)"/><line class="g" y2="3.844" transform="translate(49.008 77.836)"/><line class="g" y2="5.766" transform="translate(54.773 73.031)"/><line class="g" y2="11.531" transform="translate(54.773 56.695)"/><line class="g" y2="1.922" transform="translate(54.773 80.719)"/><line class="g" y2="1.922" transform="translate(54.773 88.406)"/><line class="g" y2="9.609" transform="translate(60.539 76.875)"/><line class="g" y2="5.766" transform="translate(60.539 89.367)"/><line class="g" y2="6.727" transform="translate(66.305 75.914)"/><line class="g" y2="1.922" transform="translate(66.305 72.07)"/><line class="g" y2="8.648" transform="translate(72.07 80.719)"/><line class="g" y2="1.922" transform="translate(72.07 91.289)"/><line class="g" y2="7.688" transform="translate(77.836 74.953)"/><line class="g" y2="3.844" transform="translate(77.836 84.563)"/><line class="g" y2="1.922" transform="translate(77.836 71.109)"/><circle class="h" cx="7.688" cy="7.688" r="7.688" transform="translate(22.102 49.969)"/><circle class="h" cx="2.883" cy="2.883" r="2.883" transform="translate(34.594 59.578)"/><circle class="h" cx="4.805" cy="4.805" r="4.805" transform="translate(16.336 55.734)"/><rect class="h" width="16.336" height="4.805" transform="translate(21.141 60.539)"/><path class="i" d="M76.875,35.555A13.453,13.453,0,1,1,63.422,22.1,13.453,13.453,0,0,1,76.875,35.555Z"/><path class="i" d="M50.93,46.125a7.688,7.688,0,1,1-7.687-7.687A7.687,7.687,0,0,1,50.93,46.125Z"/><path class="i" d="M56.7,36.516a7.688,7.688,0,1,1-7.687-7.687A7.687,7.687,0,0,1,56.7,36.516Z"/><path class="i" d="M85.523,36.516a7.688,7.688,0,1,1-7.687-7.687A7.688,7.688,0,0,1,85.523,36.516Z"/><path class="i" d="M75.914,46.125A7.688,7.688,0,1,0,83.6,38.438,7.688,7.688,0,0,0,75.914,46.125Z"/><rect class="i" width="40.359" height="15.375" transform="translate(43.242 38.438)"/><circle class="h" cx="9.609" cy="9.609" r="9.609" transform="translate(73.992 49.969)"/><circle class="h" cx="4.805" cy="4.805" r="4.805" transform="translate(70.148 59.578)"/><circle class="h" cx="4.805" cy="4.805" r="4.805" transform="translate(88.406 59.578)"/><circle class="h" cx="5.766" cy="5.766" r="5.766" transform="translate(94.172 57.656)"/><circle class="h" cx="2.883" cy="2.883" r="2.883" transform="translate(102.82 63.422)"/><rect class="h" width="30.75" height="3.844" transform="translate(74.953 65.344)"/><path class="d" d="M64.383,57.656H57.656L64.383,41.32Z"/><path class="d" d="M62.461,55.734h6.727L62.461,72.07Z"/></g></g></svg>