<svg xmlns="http://www.w3.org/2000/svg" xmlns:xlink="http://www.w3.org/1999/xlink" viewBox="0 0 149 123"><defs><style>.a,.g{fill:#fff;}.a{stroke:#707070;}.b,.i{fill:none;}.c{clip-path:url(#a);}.d{fill:#f2f2f2;}.e{clip-path:url(#b);}.f{fill:#cccbca;}.h{fill:#92deeb;}.i{stroke:#474f59;stroke-miterlimit:10;stroke-width:1.922px;}.j{fill:#474f59;}</style><clipPath id="a"><ellipse class="a" cx="74.5" cy="61.5" rx="74.5" ry="61.5" transform="translate(113 2627)"/></clipPath><clipPath id="b"><path class="b" d="M123,61.5A61.5,61.5,0,1,1,61.5,0,61.5,61.5,0,0,1,123,61.5Z"/></clipPath></defs><g class="c" transform="translate(-113 -2627)"><g transform="translate(126 2627)"><circle class="d" cx="61.5" cy="61.5" r="61.5"/><g class="e"><path class="f" d="M99.938,49.969A36.516,36.516,0,1,1,63.422,13.453,36.516,36.516,0,0,1,99.938,49.969Z"/><rect class="f" width="19.219" height="28.828" transform="translate(26.906 49.969)"/><path class="f" d="M30.75,78.8H17.3l9.609-24.984Z"/><path class="f" d="M75.914,99.938H28.828L26.906,78.8l53.813-3.844Z"/><path class="f" d="M93.211,121.078,47.086,132.609V97.055l39.4-16.336Z"/><path class="f" d="M73.031,93.249l14.414-5.8L98.016,61.5,73.031,65.344Z"/></g><path class="g" d="M93.211,49.969A29.789,29.789,0,1,1,63.422,20.18,29.789,29.789,0,0,1,93.211,49.969Z"/><path class="h" d="M86.484,49.969A23.063,23.063,0,1,1,63.422,26.906,23.062,23.062,0,0,1,86.484,49.969Z"/><path class="i" d="M81.68,49.969A18.258,18.258,0,1,1,63.422,31.711,18.258,18.258,0,0,1,81.68,49.969Z"/><rect class="g" width="5.766" height="17.297" transform="translate(60.539 41.32)"/><rect class="g" width="17.297" height="5.766" transform="translate(54.773 47.086)"/><line class="i" y2="7.688" transform="translate(60.539 87.445)"/><line class="i" x2="7.688" transform="translate(56.695 91.289)"/><line class="i" y2="7.688" transform="translate(105.703 37.477)"/><line class="i" x2="7.688" transform="translate(101.859 41.32)"/><circle class="j" cx="3.844" cy="3.844" r="3.844" transform="translate(80.719 15.375)"/><circle class="f" cx="1.922" cy="1.922" r="1.922" transform="translate(104.742 55.734)"/><circle class="g" cx="0.961" cy="0.961" r="0.961" transform="translate(29.789 42.281)"/><circle class="f" cx="2.883" cy="2.883" r="2.883" transform="translate(25.945 24.023)"/><circle class="g" cx="4.805" cy="4.805" r="4.805" transform="translate(70.148 81.68)"/><circle class="j" cx="1.922" cy="1.922" r="1.922" transform="translate(16.336 39.398)"/></g></g></svg>