<svg xmlns="http://www.w3.org/2000/svg" xmlns:xlink="http://www.w3.org/1999/xlink" viewBox="0 0 149 123"><defs><style>.a,.g{fill:#fff;}.a{stroke:#707070;}.b,.k,.l{fill:none;}.c{clip-path:url(#a);}.d{fill:#f2f2f2;}.e{clip-path:url(#b);}.f{fill:#cccbca;}.h{fill:#adecf7;}.i{fill:#76d0de;}.j{fill:#92deeb;}.k,.l{stroke:#474f59;stroke-miterlimit:10;stroke-width:1.922px;}.l{stroke-dasharray:2 2;}.m{fill:#f77b55;}.n{fill:#fdca5c;}.o{fill:#474f59;}</style><clipPath id="a"><ellipse class="a" cx="74.5" cy="61.5" rx="74.5" ry="61.5" transform="translate(113 1891)"/></clipPath><clipPath id="b"><path class="b" d="M123,61.5A61.5,61.5,0,1,1,61.5,0,61.5,61.5,0,0,1,123,61.5Z"/></clipPath></defs><g class="c" transform="translate(-113 -1891)"><g transform="translate(126 1891)"><circle class="d" cx="61.5" cy="61.5" r="61.5"/><g class="e"><path class="f" d="M99.938,49.969A36.516,36.516,0,1,1,63.422,13.453,36.516,36.516,0,0,1,99.938,49.969Z"/><rect class="f" width="19.219" height="28.828" transform="translate(26.906 49.969)"/><path class="f" d="M30.75,78.8H17.3l9.609-24.984Z"/><path class="f" d="M75.914,99.938H28.828L26.906,78.8l53.813-3.844Z"/><path class="f" d="M93.211,121.078,47.086,132.609V97.055l39.4-16.336Z"/><path class="f" d="M73.031,93.249l14.414-5.8L98.016,61.5,73.031,65.344Z"/></g><path class="g" d="M93.211,49.969A29.789,29.789,0,1,1,63.422,20.18,29.789,29.789,0,0,1,93.211,49.969Z"/><path class="h" d="M50.449,42.281l-4.324-7.207L36.516,46.605Z"/><path class="i" d="M53.332,53.813,62.941,44.2,46.125,35.074Z"/><path class="h" d="M71.59,35.555l16.336,17.3-34.594.961Z"/><path class="i" d="M87.926,52.852,71.59,35.555,105.7,37.477Z"/><path class="j" d="M87.926,52.852,71.59,35.555l33.152-11.531Z"/><path class="j" d="M80.238,70.148,53.332,53.813l34.594-.961Z"/><path class="i" d="M95.613,89.367,80.238,70.148l7.688-17.3Z"/><path class="k" d="M73.992,85.523v.961h-.961"/><line class="l" x1="6.727" transform="translate(64.383 86.484)"/><path class="k" d="M63.422,86.484h-.961v-.961"/><line class="l" y1="6.727" transform="translate(62.461 76.875)"/><path class="k" d="M62.461,75.914v-.961h.961"/><line class="l" x2="6.727" transform="translate(65.344 74.953)"/><path class="k" d="M73.031,74.953h.961v.961"/><line class="l" y2="6.727" transform="translate(73.992 77.836)"/><path class="m" d="M49.008,30.75l8.648-15.375L66.3,30.75Z"/><rect class="n" width="7.688" height="7.688" transform="translate(42.281 54.773)"/><circle class="k" cx="4.805" cy="4.805" r="4.805" transform="translate(96.094 50.93)"/><circle class="g" cx="2.883" cy="2.883" r="2.883" transform="translate(45.164 81.68)"/><circle class="o" cx="4.805" cy="4.805" r="4.805" transform="translate(22.102 33.633)"/></g></g></svg>