<svg xmlns="http://www.w3.org/2000/svg" xmlns:xlink="http://www.w3.org/1999/xlink" viewBox="0 0 149 123"><defs><style>.a,.g{fill:#fff;}.a{stroke:#707070;}.b,.i{fill:none;}.c{clip-path:url(#a);}.d{fill:#474f59;}.e{clip-path:url(#b);}.f{fill:#ffdb79;}.h{fill:#fdca5c;}.i{stroke:#474f59;stroke-miterlimit:10;stroke-width:1.922px;}.j{fill:#f77b55;}</style><clipPath id="a"><ellipse class="a" cx="74.5" cy="61.5" rx="74.5" ry="61.5" transform="translate(113 1515)"/></clipPath><clipPath id="b"><path class="b" d="M123,61.5A61.5,61.5,0,1,1,61.5,0,61.5,61.5,0,0,1,123,61.5Z"/></clipPath></defs><g class="c" transform="translate(-113 -1515)"><g transform="translate(126 1515)"><circle class="d" cx="61.5" cy="61.5" r="61.5"/><g class="e"><path class="f" d="M114.352,52.852A36.516,36.516,0,1,1,77.836,16.336,36.516,36.516,0,0,1,114.352,52.852Z"/><rect class="f" width="19.219" height="28.828" transform="translate(41.32 52.852)"/><path class="f" d="M45.164,81.68H31.711L41.32,56.7Z"/><path class="f" d="M90.328,102.82H43.242L41.32,81.68l53.813-3.844Z"/><path class="f" d="M107.625,123.961,61.5,135.492V99.938L100.9,83.6Z"/><path class="f" d="M87.445,96.132l14.414-5.8,10.57-25.945L87.445,68.227Z"/><path class="g" d="M8.648,52.852A36.516,36.516,0,1,0,45.164,16.336,36.516,36.516,0,0,0,8.648,52.852Z"/><rect class="g" width="19.219" height="28.828" transform="translate(62.461 52.852)"/><path class="g" d="M77.836,81.68H91.289L81.68,56.7Z"/><path class="g" d="M32.672,102.82H79.758L81.68,81.68,27.867,77.836Z"/><path class="g" d="M15.375,123.961,61.5,135.492V99.938L22.1,83.6Z"/><path class="g" d="M35.555,96.132l-14.414-5.8L10.57,64.383l24.984,3.844Z"/></g><path class="h" d="M79.758,102.82,81.68,81.68h9.609L81.68,56.7V52.852A36.516,36.516,0,0,0,61.5,20.18,36.516,36.516,0,0,0,41.32,52.852V56.7L31.711,81.68H41.32l1.922,21.141Z"/><line class="i" y1="1.922" transform="translate(61.5 89.367)"/><line class="i" y1="1.922" transform="translate(61.5 85.523)"/><line class="i" y1="1.922" transform="translate(61.5 81.68)"/><circle class="j" cx="7.688" cy="7.688" r="7.688" transform="translate(27.867 32.672)"/><circle class="j" cx="7.688" cy="7.688" r="7.688" transform="translate(39.398 32.672)"/><path class="j" d="M52.525,45.8,41.647,34.92l-.327.336-.327-.336L30.116,45.8l11.2,11.858Z"/><path class="g" d="M72.349,63.556A4.949,4.949,0,1,1,67.4,58.617a4.949,4.949,0,0,1,4.949,4.939Z"/><path class="g" d="M79.758,63.556a4.939,4.939,0,1,1-4.939-4.939A4.939,4.939,0,0,1,79.758,63.556Z"/><path class="g" d="M78.307,67.054l-6.986-6.986-.211.211-.211-.211-6.986,6.986,7.2,7.9Z"/><path class="j" d="M83.6,43.242A3.844,3.844,0,1,1,79.758,39.4,3.844,3.844,0,0,1,83.6,43.242Z"/><path class="j" d="M89.367,43.242A3.844,3.844,0,1,1,85.523,39.4,3.844,3.844,0,0,1,89.367,43.242Z"/><path class="j" d="M88.243,45.962,82.8,40.523l-.163.163-.163-.163-5.439,5.439,5.6,5.929Z"/><path class="h" d="M35.286,101.725a2.748,2.748,0,1,1-2.748-2.748,2.748,2.748,0,0,1,2.748,2.748Z"/><path class="h" d="M39.4,101.725a2.748,2.748,0,1,1-2.748-2.748,2.748,2.748,0,0,1,2.748,2.748Z"/><path class="h" d="M38.591,103.666l-3.882-3.882-.115.115-.115-.115L30.6,103.666l4,3.959Z"/><circle class="g" cx="1.922" cy="1.922" r="1.922" transform="translate(66.305 110.508)"/><circle class="j" cx="1.922" cy="1.922" r="1.922" transform="translate(78.797 30.75)"/><circle class="j" cx="3.844" cy="3.844" r="3.844" transform="translate(32.672 62.461)"/><circle class="g" cx="4.805" cy="4.805" r="4.805" transform="translate(47.086 88.406)"/></g></g></svg>