<svg xmlns="http://www.w3.org/2000/svg" xmlns:xlink="http://www.w3.org/1999/xlink" viewBox="0 0 128 138"><defs><style>.cls-1,.cls-10,.cls-6,.cls-7,.cls-9{fill:none;}.cls-2{fill:#f77b55;}.cls-3{clip-path:url(#clip-path);}.cls-4{fill:#fff;}.cls-5{fill:#474f59;}.cls-6,.cls-7{stroke:#fff;}.cls-6,.cls-9{stroke-miterlimit:10;}.cls-10,.cls-6,.cls-7,.cls-9{stroke-width:4px;}.cls-10,.cls-7{stroke-linejoin:round;}.cls-8{fill:#fdca5c;}.cls-10,.cls-9{stroke:#474f59;}</style><clipPath id="clip-path"><path class="cls-1" d="M128,64A64,64,0,1,1,64,0,64,64,0,0,1,128,64Z"/></clipPath></defs><title>iconosRecurso 25</title><g id="Capa_2" data-name="Capa 2"><g id="Layer_1" data-name="Layer 1"><circle class="cls-2" cx="64" cy="64" r="64"/><g class="cls-3"><path class="cls-4" d="M104,52A38,38,0,1,1,66,14,38,38,0,0,1,104,52Z"/><rect class="cls-4" x="28" y="52" width="20" height="30"/><polygon class="cls-4" points="32 82 18 82 28 56 32 82"/><polygon class="cls-4" points="79 104 30 104 28 82 84 78 79 104"/><polygon class="cls-4" points="97 126 49 138 49 101 90 84 97 126"/><polygon class="cls-4" points="76 97.04 91 91 102 64 76 68 76 97.04"/></g><path class="cls-5" d="M72,93a38.8,38.8,0,0,0,22,35,38.79,38.79,0,0,0,22-35Z"/><path class="cls-5" d="M109,74a30.13,30.13,0,0,1-30,0l-7,3V93h44V77Z"/><path class="cls-6" d="M81,88a4,4,0,0,0,8,0"/><path class="cls-6" d="M99,88a4,4,0,0,0,8,0"/><path class="cls-7" d="M86,112a8,8,0,0,1,16,0Z"/><path class="cls-8" d="M42,61A38.8,38.8,0,0,0,64,96,38.79,38.79,0,0,0,86,61Z"/><path class="cls-8" d="M79,42a30.13,30.13,0,0,1-30,0l-7,3V61H86V45Z"/><path class="cls-9" d="M51,61a4,4,0,0,1,8,0"/><path class="cls-9" d="M69,61a4,4,0,0,1,8,0"/><path class="cls-10" d="M56,72a8,8,0,0,0,16,0Z"/><circle class="cls-5" cx="100" cy="35" r="5"/><circle class="cls-4" cx="108" cy="67" r="3"/><circle class="cls-5" cx="95" cy="51" r="1"/><circle class="cls-8" cx="84" cy="29" r="2"/><circle class="cls-5" cx="57" cy="98" r="2"/><circle class="cls-8" cx="64" cy="105" r="3"/></g></g></svg>