<svg xmlns="http://www.w3.org/2000/svg" xmlns:xlink="http://www.w3.org/1999/xlink" viewBox="0 0 128 138"><defs><style>.cls-1,.cls-10,.cls-8,.cls-9{fill:none;}.cls-2{fill:#92deeb;}.cls-3{clip-path:url(#clip-path);}.cls-4{fill:#474f59;}.cls-5{fill:#fff;}.cls-6{fill:#ff916e;}.cls-7{fill:#ffdb79;}.cls-8{stroke:#ee643c;}.cls-10,.cls-8,.cls-9{stroke-miterlimit:10;stroke-width:2px;}.cls-9{stroke:#fab83e;}.cls-10{stroke:#474f59;}</style><clipPath id="clip-path"><path class="cls-1" d="M128,64A64,64,0,1,1,64,0,64,64,0,0,1,128,64Z"/></clipPath></defs><title>iconosRecurso 8</title><g id="Capa_2" data-name="Capa 2"><g id="Layer_1" data-name="Layer 1"><circle class="cls-2" cx="64" cy="64" r="64"/><g class="cls-3"><path class="cls-4" d="M98,52A38,38,0,1,1,60,14,38,38,0,0,1,98,52Z"/><rect class="cls-4" x="22" y="52" width="20" height="30"/><polygon class="cls-4" points="26 82 12 82 22 56 26 82"/><polygon class="cls-4" points="73 104 24 104 22 82 78 78 73 104"/><polygon class="cls-4" points="91 126 43 138 43 101 84 84 91 126"/><polygon class="cls-4" points="70 97.04 85 91 96 64 70 68 70 97.04"/><path class="cls-5" d="M112,52A38,38,0,1,1,74,14,38,38,0,0,1,112,52Z"/><rect class="cls-5" x="36" y="52" width="20" height="30"/><polygon class="cls-5" points="40 82 26 82 36 56 40 82"/><polygon class="cls-5" points="87 104 38 104 36 82 92 78 87 104"/><polygon class="cls-5" points="105 126 57 138 57 101 98 84 105 126"/><polygon class="cls-5" points="84 97.04 99 91 110 64 84 68 84 97.04"/></g><path class="cls-6" d="M66,24a6,6,0,0,0-6,5.36A5.89,5.89,0,0,0,58,29a6,6,0,0,0-6,6,6.17,6.17,0,0,0,.1,1.07,6,6,0,0,0-3.19,10.31,6,6,0,0,0,0,11.24A6,6,0,0,0,52.1,67.93,6.17,6.17,0,0,0,52,69a6,6,0,0,0,6,6,5.89,5.89,0,0,0,2-.36A6,6,0,0,0,72,74V30A6,6,0,0,0,66,24Z"/><path class="cls-7" d="M76,30V74a6,6,0,0,0,12,.64A6,6,0,0,0,96,69a6.17,6.17,0,0,0-.1-1.07,6,6,0,0,0,3.19-10.31,6,6,0,0,0,0-11.24A6,6,0,0,0,95.9,36.07,6.17,6.17,0,0,0,96,35a6,6,0,0,0-8-5.64A6,6,0,0,0,76,30Z"/><path class="cls-8" d="M66,36a6,6,0,1,1,6-6V74a6,6,0,1,1-6-6"/><path class="cls-8" d="M51,58a6,6,0,0,1,0-12"/><path class="cls-8" d="M48.76,46.24a6,6,0,0,1,8.48-8.48"/><path class="cls-8" d="M52.1,36.07A5.32,5.32,0,0,1,52,35a6,6,0,0,1,6-6,5.71,5.71,0,0,1,2,.36"/><path class="cls-8" d="M48.76,57.76a6,6,0,1,0,8.48,8.48"/><path class="cls-8" d="M52.1,67.93A5.32,5.32,0,0,0,52,69a6,6,0,0,0,6,6,5.71,5.71,0,0,0,2-.36"/><path class="cls-8" d="M72,40a6,6,0,0,1-6,6"/><path class="cls-8" d="M64,49a6,6,0,0,1-6-6"/><path class="cls-8" d="M64,55a6,6,0,0,0-6,6"/><path class="cls-8" d="M72,64a6,6,0,0,0-6-6"/><path class="cls-9" d="M82,36a6,6,0,1,0-6-6V74a6,6,0,1,0,6-6"/><path class="cls-9" d="M97,58a6,6,0,0,0,0-12"/><path class="cls-9" d="M99.24,46.24a6,6,0,0,0-8.48-8.48"/><path class="cls-9" d="M88,29.36A5.71,5.71,0,0,1,90,29a6,6,0,0,1,6,6,5.32,5.32,0,0,1-.1,1.07"/><path class="cls-9" d="M99.24,57.76a6,6,0,1,1-8.48,8.48"/><path class="cls-9" d="M88,74.64A5.71,5.71,0,0,0,90,75a6,6,0,0,0,6-6,5.32,5.32,0,0,0-.1-1.07"/><path class="cls-9" d="M76,40a6,6,0,0,0,6,6"/><path class="cls-9" d="M84,49a6,6,0,0,0,6-6"/><path class="cls-9" d="M84,55a6,6,0,0,1,6,6"/><path class="cls-9" d="M76,64a6,6,0,0,1,6-6"/><line class="cls-10" x1="74" y1="26" x2="74" y2="24"/><line class="cls-10" x1="74" y1="22" x2="74" y2="20"/><line class="cls-10" x1="74" y1="18" x2="74" y2="16"/><line class="cls-10" x1="74" y1="88" x2="74" y2="86"/><line class="cls-10" x1="74" y1="84" x2="74" y2="82"/><line class="cls-10" x1="74" y1="80" x2="74" y2="78"/></g></g></svg>