<svg xmlns="http://www.w3.org/2000/svg" xmlns:xlink="http://www.w3.org/1999/xlink" viewBox="0 0 128 138"><defs><style>.cls-1,.cls-6{fill:none;}.cls-2{fill:#92deeb;}.cls-3{clip-path:url(#clip-path);}.cls-4{fill:#fff;}.cls-5{fill:#474f59;}.cls-6{stroke:#fff;stroke-miterlimit:10;stroke-width:2px;}.cls-7{fill:#cccbca;}</style><clipPath id="clip-path"><path class="cls-1" d="M128,64A64,64,0,1,1,64,0,64,64,0,0,1,128,64Z"/></clipPath></defs><title>iconosRecurso 21</title><g id="Capa_2" data-name="Capa 2"><g id="Layer_1" data-name="Layer 1"><circle class="cls-2" cx="64" cy="64" r="64"/><g class="cls-3"><path class="cls-4" d="M104,52A38,38,0,1,1,66,14,38,38,0,0,1,104,52Z"/><rect class="cls-4" x="28" y="52" width="20" height="30"/><polygon class="cls-4" points="32 82 18 82 28 56 32 82"/><polygon class="cls-4" points="79 104 30 104 28 82 84 78 79 104"/><polygon class="cls-4" points="97 126 49 138 49 101 90 84 97 126"/><polygon class="cls-4" points="76 97.04 91 91 102 64 76 68 76 97.04"/></g><path class="cls-5" d="M97,52A31,31,0,1,1,66,21,31,31,0,0,1,97,52Z"/><path class="cls-6" d="M66,78a26,26,0,0,0,0-52,24,24,0,0,0,0,48,22,22,0,0,0,0-44,20,20,0,0,0,0,40,18,18,0,0,0,0-36,16,16,0,0,0,0,32,14,14,0,0,0,0-28,12,12,0,0,0,0,24,10,10,0,0,0,0-20,8,8,0,0,0,0,16,6,6,0,0,0,0-12,4,4,0,0,0,0,8"/><circle class="cls-5" cx="86" cy="17" r="5"/><circle class="cls-4" cx="109" cy="39" r="3"/><circle class="cls-5" cx="63" cy="91" r="1"/><circle class="cls-5" cx="108" cy="54" r="1"/><circle class="cls-4" cx="75" cy="11" r="2"/><circle class="cls-4" cx="21" cy="44" r="4"/><circle class="cls-7" cx="77" cy="89" r="4"/><circle class="cls-5" cx="32" cy="67" r="2"/></g></g></svg>