<svg xmlns="http://www.w3.org/2000/svg" xmlns:xlink="http://www.w3.org/1999/xlink" viewBox="0 0 128 138"><defs><style>.cls-1,.cls-6,.cls-7{fill:none;}.cls-2{fill:#fdca5c;}.cls-3{clip-path:url(#clip-path);}.cls-4{fill:#fff;}.cls-5{fill:#92deeb;}.cls-6,.cls-7{stroke:#474f59;stroke-miterlimit:10;}.cls-6{stroke-width:2px;}.cls-7{stroke-width:4px;}</style><clipPath id="clip-path"><path class="cls-1" d="M128,64A64,64,0,1,1,64,0,64,64,0,0,1,128,64Z"/></clipPath></defs><title>iconosRecurso 16</title><g id="Capa_2" data-name="Capa 2"><g id="Layer_1" data-name="Layer 1"><circle class="cls-2" cx="64" cy="64" r="64"/><g class="cls-3"><path class="cls-4" d="M104,52A38,38,0,1,1,66,14,38,38,0,0,1,104,52Z"/><rect class="cls-4" x="28" y="52" width="20" height="30"/><polygon class="cls-4" points="32 82 18 82 28 56 32 82"/><polygon class="cls-4" points="79 104 30 104 28 82 84 78 79 104"/><polygon class="cls-4" points="97 126 49 138 49 101 90 84 97 126"/><polygon class="cls-4" points="76 97.04 91 91 102 64 76 68 76 97.04"/></g><path class="cls-5" d="M43,51A11,11,0,1,0,54,40,11,11,0,0,0,43,51Z"/><path class="cls-5" d="M54,51,38,35c6,0,15.8.24,23.78,8.22Z"/><path class="cls-5" d="M54,51,38,35c0,6,.24,15.8,8.22,23.78Z"/><circle class="cls-5" cx="82" cy="63" r="9"/><path class="cls-5" d="M82,63,95,50c-5,0-12.86.13-19.36,6.63Z"/><path class="cls-5" d="M82,63,95,50c0,5-.13,12.87-6.63,19.36Z"/><path class="cls-6" d="M82,63l-6.14,6.14A20,20,0,0,0,70,83.28V84"/><circle class="cls-5" cx="58" cy="77" r="7"/><path class="cls-5" d="M58,77,48,67c4,0,9.63-.27,15,5Z"/><path class="cls-5" d="M58,77,48,67c0,4-.27,9.63,5,15Z"/><path class="cls-6" d="M58,77l4.14,4.14A20,20,0,0,1,68,95.28V96"/><line class="cls-7" x1="69" y1="57" x2="69" y2="128"/><path class="cls-6" d="M54,51l8.14,8.14A20,20,0,0,1,68,73.28V74"/><circle class="cls-5" cx="79" cy="95" r="6"/><path class="cls-5" d="M79,95l9-9c-4,0-8.55.06-13.24,4.76Z"/><path class="cls-5" d="M79,95l9-9c0,4-.06,8.55-4.76,13.24Z"/><path class="cls-6" d="M79,95l-3.14,3.14A20,20,0,0,0,70,112.28V113"/><path class="cls-6" d="M62.14,94A20,20,0,0,1,68,108.14v.72"/></g></g></svg>