<svg xmlns="http://www.w3.org/2000/svg" xmlns:xlink="http://www.w3.org/1999/xlink" viewBox="0 0 128 138"><defs><style>.cls-1,.cls-6,.cls-9{fill:none;}.cls-2{fill:#474f59;}.cls-3{clip-path:url(#clip-path);}.cls-4{fill:#fff;}.cls-5{fill:#92deeb;}.cls-6{stroke:#474f59;}.cls-6,.cls-9{stroke-miterlimit:10;stroke-width:2px;}.cls-7{fill:#f77b55;}.cls-8{fill:#ee643c;}.cls-9{stroke:#fff;}.cls-10{fill:#353f49;}</style><clipPath id="clip-path"><path class="cls-1" d="M128,64A64,64,0,1,1,64,0,64,64,0,0,1,128,64Z"/></clipPath></defs><title>iconosRecurso 22</title><g id="Capa_2" data-name="Capa 2"><g id="Layer_1" data-name="Layer 1"><circle class="cls-2" cx="64" cy="64" r="64"/><g class="cls-3"><path class="cls-4" d="M104,52A38,38,0,1,1,66,14,38,38,0,0,1,104,52Z"/><rect class="cls-4" x="28" y="52" width="20" height="30"/><polygon class="cls-4" points="32 82 18 82 28 56 32 82"/><polygon class="cls-4" points="79 104 30 104 28 82 84 78 79 104"/><polygon class="cls-4" points="97 126 49 138 49 101 90 84 97 126"/><polygon class="cls-4" points="76 97.04 91 91 102 64 76 68 76 97.04"/></g><polygon class="cls-5" points="104 77 104 63 90 63 104 77"/><circle class="cls-5" cx="90" cy="63" r="14"/><line class="cls-6" x1="85" y1="63" x2="87" y2="63"/><line class="cls-6" x1="89" y1="63" x2="91" y2="63"/><line class="cls-6" x1="93" y1="63" x2="95" y2="63"/><polygon class="cls-7" points="64 40 47 47 40 64 57 57 64 40"/><path class="cls-7" d="M92,43c0,11.6-11.65,21-26,21S40,54.6,40,43,51.64,22,66,22,92,31.4,92,43Z"/><path class="cls-8" d="M76,62.38C83.15,60,88.66,55.08,90.9,49.05c-.3,0-.6,0-.9,0A14,14,0,0,0,76,62.38Z"/><line class="cls-9" x1="50" y1="37" x2="78" y2="37"/><line class="cls-9" x1="54" y1="41" x2="78" y2="41"/><line class="cls-9" x1="54" y1="45" x2="78" y2="45"/><line class="cls-9" x1="54" y1="49" x2="71" y2="49"/><circle class="cls-10" cx="46" cy="76" r="6"/><circle class="cls-4" cx="103" cy="26" r="4"/><circle class="cls-10" cx="37" cy="58" r="2"/><circle class="cls-4" cx="23" cy="45" r="3"/><circle class="cls-4" cx="100" cy="82" r="2"/><circle class="cls-7" cx="66" cy="72" r="2"/><circle class="cls-4" cx="111" cy="73" r="1"/></g></g></svg>