<svg xmlns="http://www.w3.org/2000/svg" xmlns:xlink="http://www.w3.org/1999/xlink" viewBox="0 0 128 138"><defs><style>.cls-1{fill:none;}.cls-2{fill:#92deeb;}.cls-3{clip-path:url(#clip-path);}.cls-4{fill:#fff;}.cls-5{fill:#cccbca;}.cls-6{fill:#474f59;}</style><clipPath id="clip-path"><path class="cls-1" d="M128,64A64,64,0,1,1,64,0,64,64,0,0,1,128,64Z"/></clipPath></defs><title>iconosRecurso 12</title><g id="Capa_2" data-name="Capa 2"><g id="Layer_1" data-name="Layer 1"><circle class="cls-2" cx="64" cy="64" r="64"/><g class="cls-3"><path class="cls-4" d="M104,52A38,38,0,1,1,66,14,38,38,0,0,1,104,52Z"/><rect class="cls-4" x="28" y="52" width="20" height="30"/><polygon class="cls-4" points="32 82 18 82 28 56 32 82"/><polygon class="cls-4" points="79 104 30 104 28 82 84 78 79 104"/><polygon class="cls-4" points="97 126 49 138 49 101 90 84 97 126"/><polygon class="cls-4" points="76 97.04 91 91 102 64 76 68 76 97.04"/></g><path class="cls-5" d="M97,52A31,31,0,1,1,66,21,31,31,0,0,1,97,52Z"/><path class="cls-6" d="M90,52A24,24,0,0,0,66,28a12,12,0,0,0,0,24,12,12,0,0,1,0,24A24,24,0,0,0,90,52ZM70,40a4,4,0,1,1-4-4A4,4,0,0,1,70,40Z"/><path class="cls-4" d="M42,52A24,24,0,0,0,66,76a12,12,0,0,0,0-24,12,12,0,0,1,0-24A24,24,0,0,0,42,52ZM62,64a4,4,0,1,1,4,4A4,4,0,0,1,62,64Z"/><circle class="cls-6" cx="86" cy="18" r="4"/><circle class="cls-4" cx="109" cy="37" r="2"/><circle class="cls-5" cx="32" cy="46" r="1"/><circle class="cls-4" cx="30" cy="29" r="3"/><circle class="cls-6" cx="90" cy="90" r="4"/><circle class="cls-5" cx="74" cy="92" r="2"/><circle class="cls-6" cx="19" cy="44" r="2"/></g></g></svg>