<svg xmlns="http://www.w3.org/2000/svg" xmlns:xlink="http://www.w3.org/1999/xlink" viewBox="0 0 128 141"><defs><style>.cls-1,.cls-7{fill:none;}.cls-2{fill:#474f59;}.cls-3{clip-path:url(#clip-path);}.cls-4{fill:#ffdb79;}.cls-5{fill:#fff;}.cls-6{fill:#fdca5c;}.cls-7{stroke:#474f59;stroke-miterlimit:10;stroke-width:2px;}.cls-8{fill:#f77b55;}</style><clipPath id="clip-path"><path class="cls-1" d="M128,64A64,64,0,1,1,64,0,64,64,0,0,1,128,64Z"/></clipPath></defs><title>iconosRecurso 2</title><g id="Capa_2" data-name="Capa 2"><g id="Layer_1" data-name="Layer 1"><circle class="cls-2" cx="64" cy="64" r="64"/><g class="cls-3"><path class="cls-4" d="M119,55A38,38,0,1,1,81,17,38,38,0,0,1,119,55Z"/><rect class="cls-4" x="43" y="55" width="20" height="30"/><polygon class="cls-4" points="47 85 33 85 43 59 47 85"/><polygon class="cls-4" points="94 107 45 107 43 85 99 81 94 107"/><polygon class="cls-4" points="112 129 64 141 64 104 105 87 112 129"/><polygon class="cls-4" points="91 100.04 106 94 117 67 91 71 91 100.04"/><path class="cls-5" d="M9,55A38,38,0,1,0,47,17,38,38,0,0,0,9,55Z"/><rect class="cls-5" x="65" y="55" width="20" height="30"/><polygon class="cls-5" points="81 85 95 85 85 59 81 85"/><polygon class="cls-5" points="34 107 83 107 85 85 29 81 34 107"/><polygon class="cls-5" points="16 129 64 141 64 104 23 87 16 129"/><polygon class="cls-5" points="37 100.04 22 94 11 67 37 71 37 100.04"/></g><path class="cls-6" d="M83,107l2-22H95L85,59V55A38,38,0,0,0,64,21,38,38,0,0,0,43,55v4L33,85H43l2,22H83Z"/><line class="cls-7" x1="64" y1="95" x2="64" y2="93"/><line class="cls-7" x1="64" y1="91" x2="64" y2="89"/><line class="cls-7" x1="64" y1="87" x2="64" y2="85"/><circle class="cls-8" cx="37" cy="42" r="8"/><circle class="cls-8" cx="49" cy="42" r="8"/><polygon class="cls-8" points="54.66 47.66 43.34 36.34 43 36.69 42.66 36.34 31.34 47.66 43 60 54.66 47.66"/><path class="cls-5" d="M75.29,66.14A5.15,5.15,0,1,1,70.14,61,5.16,5.16,0,0,1,75.29,66.14Z"/><path class="cls-5" d="M83,66.14A5.14,5.14,0,1,1,77.86,61,5.15,5.15,0,0,1,83,66.14Z"/><polygon class="cls-5" points="81.49 69.78 74.22 62.51 74 62.73 73.78 62.51 66.51 69.78 74 78 81.49 69.78"/><path class="cls-8" d="M87,45a4,4,0,1,1-4-4A4,4,0,0,1,87,45Z"/><path class="cls-8" d="M93,45a4,4,0,1,1-4-4A4,4,0,0,1,93,45Z"/><polygon class="cls-8" points="91.83 47.83 86.17 42.17 86 42.34 85.83 42.17 80.17 47.83 86 54 91.83 47.83"/><path class="cls-6" d="M36.72,105.86A2.86,2.86,0,1,1,33.86,103,2.86,2.86,0,0,1,36.72,105.86Z"/><path class="cls-6" d="M41,105.86A2.86,2.86,0,1,1,38.14,103,2.86,2.86,0,0,1,41,105.86Z"/><polygon class="cls-6" points="40.16 107.88 36.12 103.84 36 103.96 35.88 103.84 31.84 107.88 36 112 40.16 107.88"/><circle class="cls-5" cx="71" cy="117" r="2"/><circle class="cls-8" cx="84" cy="34" r="2"/><circle class="cls-8" cx="38" cy="69" r="4"/><circle class="cls-5" cx="54" cy="97" r="5"/></g></g></svg>