<svg xmlns="http://www.w3.org/2000/svg" xmlns:xlink="http://www.w3.org/1999/xlink" viewBox="0 0 128 138"><defs><style>.cls-1,.cls-10,.cls-11,.cls-9{fill:none;}.cls-2{fill:#f2f2f2;}.cls-3{clip-path:url(#clip-path);}.cls-4{fill:#cccbca;}.cls-5{fill:#fff;}.cls-6{fill:#adecf7;}.cls-7{fill:#76d0de;}.cls-8{fill:#474f59;}.cls-9{stroke:#fff;}.cls-10,.cls-11,.cls-9{stroke-miterlimit:10;stroke-width:2px;}.cls-10,.cls-11{stroke:#474f59;}.cls-11{stroke-dasharray:2.04 2.04;}</style><clipPath id="clip-path"><path class="cls-1" d="M128,64A64,64,0,1,1,64,0,64,64,0,0,1,128,64Z"/></clipPath></defs><title>iconosRecurso 1</title><g id="Capa_2" data-name="Capa 2"><g id="Layer_1" data-name="Layer 1"><circle class="cls-2" cx="64" cy="64" r="64"/><g class="cls-3"><path class="cls-4" d="M104,52A38,38,0,1,1,66,14,38,38,0,0,1,104,52Z"/><rect class="cls-4" x="28" y="52" width="20" height="30"/><polygon class="cls-4" points="32 82 18 82 28 56 32 82"/><polygon class="cls-4" points="79 104 30 104 28 82 84 78 79 104"/><polygon class="cls-4" points="97 126 49 138 49 101 90 84 97 126"/><polygon class="cls-4" points="76 97.04 91 91 102 64 76 68 76 97.04"/></g><path class="cls-5" d="M96,52A30,30,0,1,1,66,22,30,30,0,0,1,96,52Z"/><rect class="cls-6" y="32" width="35" height="40"/><path class="cls-7" d="M66,72a20,20,0,0,0,0-40H33.69A37.85,37.85,0,0,0,28,52v4L21.85,72Z"/><polygon class="cls-8" points="67 40 65 40 64 44 68 44 67 40"/><polygon class="cls-8" points="60.87 41.11 59.13 42.11 60.27 46.07 63.73 44.07 60.87 41.11"/><polygon class="cls-8" points="56.11 45.13 55.11 46.87 58.07 49.73 60.07 46.27 56.11 45.13"/><polygon class="cls-8" points="54 51 54 53 58 54 58 50 54 51"/><polygon class="cls-8" points="55.11 57.13 56.11 58.87 60.07 57.73 58.07 54.27 55.11 57.13"/><polygon class="cls-8" points="59.13 61.89 60.87 62.89 63.73 59.93 60.27 57.93 59.13 61.89"/><polygon class="cls-8" points="65 64 67 64 68 60 64 60 65 64"/><polygon class="cls-8" points="71.13 62.89 72.87 61.89 71.73 57.93 68.27 59.93 71.13 62.89"/><polygon class="cls-8" points="75.89 58.86 76.89 57.13 73.93 54.27 71.93 57.73 75.89 58.86"/><polygon class="cls-8" points="78 53 78 51 74 50 74 54 78 53"/><polygon class="cls-8" points="76.89 46.86 75.89 45.13 71.93 46.27 73.93 49.73 76.89 46.86"/><polygon class="cls-8" points="72.86 42.11 71.13 41.11 68.27 44.07 71.73 46.07 72.86 42.11"/><path class="cls-8" d="M66,43a9,9,0,1,0,9,9A9,9,0,0,0,66,43Zm0,13a4,4,0,1,1,4-4A4,4,0,0,1,66,56Z"/><path class="cls-5" d="M66,46a6,6,0,1,0,6,6A6,6,0,0,0,66,46Zm0,9a3,3,0,1,1,3-3A3,3,0,0,1,66,55Z"/><line class="cls-9" x1="42" y1="52" x2="44" y2="52"/><line class="cls-9" x1="46" y1="52" x2="48" y2="52"/><line class="cls-9" x1="50" y1="52" x2="52" y2="52"/><line class="cls-10" x1="61" y1="37" x2="62" y2="37"/><path class="cls-11" d="M64,37h2a15,15,0,0,1,0,30H63"/><line class="cls-10" x1="62" y1="67" x2="61" y2="67"/><line class="cls-10" y1="67" x2="2" y2="67"/><line class="cls-10" x1="4" y1="67" x2="6" y2="67"/><line class="cls-10" x1="8" y1="67" x2="10" y2="67"/><line class="cls-10" x1="12" y1="67" x2="14" y2="67"/><line class="cls-10" x1="16" y1="67" x2="18" y2="67"/><line class="cls-10" x1="20" y1="67" x2="22" y2="67"/><line class="cls-10" x1="24" y1="67" x2="26" y2="67"/><line class="cls-10" x1="28" y1="67" x2="30" y2="67"/><line class="cls-10" x1="32" y1="67" x2="34" y2="67"/><line class="cls-10" x1="36" y1="67" x2="38" y2="67"/><line class="cls-10" x1="40" y1="67" x2="42" y2="67"/><line class="cls-10" x1="44" y1="67" x2="46" y2="67"/><line class="cls-10" x1="48" y1="67" x2="50" y2="67"/><line class="cls-10" x1="52" y1="67" x2="54" y2="67"/><line class="cls-10" x1="56" y1="67" x2="58" y2="67"/><line class="cls-10" x1="60" y1="67" x2="62" y2="67"/><line class="cls-10" y1="37" x2="2" y2="37"/><line class="cls-10" x1="4" y1="37" x2="6" y2="37"/><line class="cls-10" x1="8" y1="37" x2="10" y2="37"/><line class="cls-10" x1="12" y1="37" x2="14" y2="37"/><line class="cls-10" x1="16" y1="37" x2="18" y2="37"/><line class="cls-10" x1="20" y1="37" x2="22" y2="37"/><line class="cls-10" x1="24" y1="37" x2="26" y2="37"/><line class="cls-10" x1="28" y1="37" x2="30" y2="37"/><line class="cls-10" x1="32" y1="37" x2="34" y2="37"/><line class="cls-10" x1="36" y1="37" x2="38" y2="37"/><line class="cls-10" x1="40" y1="37" x2="42" y2="37"/><line class="cls-10" x1="44" y1="37" x2="46" y2="37"/><line class="cls-10" x1="48" y1="37" x2="50" y2="37"/><line class="cls-10" x1="52" y1="37" x2="54" y2="37"/><line class="cls-10" x1="56" y1="37" x2="58" y2="37"/><line class="cls-10" x1="60" y1="37" x2="62" y2="37"/></g></g></svg>