<svg xmlns="http://www.w3.org/2000/svg" xmlns:xlink="http://www.w3.org/1999/xlink" viewBox="0 0 128 138"><defs><style>.cls-1,.cls-7{fill:none;}.cls-2{fill:#f2f2f2;}.cls-3{clip-path:url(#clip-path);}.cls-4{fill:#cccbca;}.cls-5{fill:#fff;}.cls-6{fill:#92deeb;}.cls-7{stroke:#474f59;stroke-miterlimit:10;stroke-width:2px;}.cls-8{fill:#474f59;}</style><clipPath id="clip-path"><path class="cls-1" d="M128,64A64,64,0,1,1,64,0,64,64,0,0,1,128,64Z"/></clipPath></defs><title>iconosRecurso 24</title><g id="Capa_2" data-name="Capa 2"><g id="Layer_1" data-name="Layer 1"><circle class="cls-2" cx="64" cy="64" r="64"/><g class="cls-3"><path class="cls-4" d="M104,52A38,38,0,1,1,66,14,38,38,0,0,1,104,52Z"/><rect class="cls-4" x="28" y="52" width="20" height="30"/><polygon class="cls-4" points="32 82 18 82 28 56 32 82"/><polygon class="cls-4" points="79 104 30 104 28 82 84 78 79 104"/><polygon class="cls-4" points="97 126 49 138 49 101 90 84 97 126"/><polygon class="cls-4" points="76 97.04 91 91 102 64 76 68 76 97.04"/></g><path class="cls-5" d="M97,52A31,31,0,1,1,66,21,31,31,0,0,1,97,52Z"/><path class="cls-6" d="M90,52A24,24,0,1,1,66,28,24,24,0,0,1,90,52Z"/><path class="cls-7" d="M85,52A19,19,0,1,1,66,33,19,19,0,0,1,85,52Z"/><rect class="cls-5" x="63" y="43" width="6" height="18"/><rect class="cls-5" x="57" y="49" width="18" height="6"/><line class="cls-7" x1="63" y1="91" x2="63" y2="99"/><line class="cls-7" x1="59" y1="95" x2="67" y2="95"/><line class="cls-7" x1="110" y1="39" x2="110" y2="47"/><line class="cls-7" x1="106" y1="43" x2="114" y2="43"/><circle class="cls-8" cx="88" cy="20" r="4"/><circle class="cls-4" cx="111" cy="60" r="2"/><circle class="cls-5" cx="32" cy="45" r="1"/><circle class="cls-4" cx="30" cy="28" r="3"/><circle class="cls-5" cx="78" cy="90" r="5"/><circle class="cls-8" cx="19" cy="43" r="2"/></g></g></svg>