<svg xmlns="http://www.w3.org/2000/svg" xmlns:xlink="http://www.w3.org/1999/xlink" viewBox="0 0 128 141"><defs><style>.cls-1,.cls-7{fill:none;}.cls-2{fill:#474f59;}.cls-3{clip-path:url(#clip-path);}.cls-4{fill:#f2f2f2;}.cls-5{fill:#fff;}.cls-6{fill:#cccbca;}.cls-7{stroke:#474f59;stroke-miterlimit:10;stroke-width:2px;}</style><clipPath id="clip-path"><path class="cls-1" d="M128,64A64,64,0,1,1,64,0,64,64,0,0,1,128,64Z"/></clipPath></defs><title>iconosRecurso 11</title><g id="Capa_2" data-name="Capa 2"><g id="Layer_1" data-name="Layer 1"><circle class="cls-2" cx="64" cy="64" r="64"/><g class="cls-3"><path class="cls-4" d="M119,55A38,38,0,1,1,81,17,38,38,0,0,1,119,55Z"/><rect class="cls-4" x="43" y="55" width="20" height="30"/><polygon class="cls-4" points="47 85 33 85 43 59 47 85"/><polygon class="cls-4" points="94 107 45 107 43 85 99 81 94 107"/><polygon class="cls-4" points="112 129 64 141 64 104 105 87 112 129"/><polygon class="cls-4" points="91 100.04 106 94 117 67 91 71 91 100.04"/><path class="cls-5" d="M9,55A38,38,0,1,0,47,17,38,38,0,0,0,9,55Z"/><rect class="cls-5" x="65" y="55" width="20" height="30"/><polygon class="cls-5" points="81 85 95 85 85 59 81 85"/><polygon class="cls-5" points="34 107 83 107 85 85 29 81 34 107"/><polygon class="cls-5" points="16 129 64 141 64 104 23 87 16 129"/><polygon class="cls-5" points="37 100.04 22 94 11 67 37 71 37 100.04"/></g><path class="cls-6" d="M83,107l2-22H95L85,59V55A38,38,0,0,0,64,21,38,38,0,0,0,43,55v4L33,85H43l2,22H83Z"/><polygon class="cls-5" points="65 63 56 63 65 44 65 63"/><polygon class="cls-5" points="63 61 72 61 63 80 63 61"/><line class="cls-7" x1="59" y1="94" x2="61" y2="94"/><line class="cls-7" x1="63" y1="94" x2="65" y2="94"/><line class="cls-7" x1="67" y1="94" x2="69" y2="94"/></g></g></svg>