<svg xmlns="http://www.w3.org/2000/svg" xmlns:xlink="http://www.w3.org/1999/xlink" viewBox="0 0 176 138"><defs><style>.cls-1,.cls-10,.cls-12,.cls-6,.cls-8{fill:none;}.cls-2{fill:#f2f2f2;}.cls-3{clip-path:url(#clip-path);}.cls-4{fill:#d9d8d7;}.cls-5{fill:#cccbca;}.cls-12,.cls-6{stroke:#474f59;}.cls-10,.cls-12,.cls-6,.cls-8{stroke-miterlimit:10;stroke-width:2px;}.cls-7{fill:#f77b55;}.cls-8{stroke:#353f49;}.cls-9{fill:#474f59;}.cls-10{stroke:#fff;}.cls-11{fill:#232e38;}.cls-12{stroke-dasharray:2 2;}.cls-13{fill:#fff;}</style><clipPath id="clip-path"><path class="cls-1" d="M152,64A64,64,0,1,1,88,0,64,64,0,0,1,152,64Z"/></clipPath></defs><title>iconosRecurso 4</title><g id="Capa_2" data-name="Capa 2"><g id="Layer_1" data-name="Layer 1"><circle class="cls-2" cx="88" cy="64" r="64"/><g class="cls-3"><path class="cls-4" d="M176,52a38,38,0,1,1-38-38A38,38,0,0,1,176,52Z"/><rect class="cls-4" x="100" y="52" width="20" height="30"/><polygon class="cls-4" points="104 82 90 82 100 56 104 82"/><polygon class="cls-4" points="151 104 102 104 100 82 156 78 151 104"/><polygon class="cls-4" points="169 126 121 138 121 101 162 84 169 126"/><polygon class="cls-4" points="148 97.04 163 91 174 64 148 68 148 97.04"/><path class="cls-5" d="M0,52A38,38,0,1,0,38,14,38,38,0,0,0,0,52Z"/><rect class="cls-5" x="56" y="52" width="20" height="30"/><polygon class="cls-5" points="72 82 86 82 76 56 72 82"/><polygon class="cls-5" points="25 104 74 104 76 82 20 78 25 104"/><polygon class="cls-5" points="7 126 55 138 55 101 14 84 7 126"/><polygon class="cls-5" points="28 97.04 13 91 2 64 28 68 28 97.04"/></g><line class="cls-6" x1="83" y1="103" x2="85" y2="103"/><line class="cls-6" x1="87" y1="103" x2="89" y2="103"/><line class="cls-6" x1="91" y1="103" x2="93" y2="103"/><polygon class="cls-7" points="85 23 85 51 115 51 123 59 123 51 127 51 127 23 85 23"/><line class="cls-8" x1="95" y1="33" x2="116" y2="33"/><line class="cls-8" x1="104" y1="37" x2="131" y2="37"/><line class="cls-8" x1="104" y1="41" x2="124" y2="41"/><polygon class="cls-9" points="35 0 35 38 41 38 41 48 51 38 91 38 91 0 35 0"/><line class="cls-10" x1="47" y1="25" x2="79" y2="25"/><line class="cls-10" x1="47" y1="21" x2="79" y2="21"/><line class="cls-10" x1="47" y1="17" x2="79" y2="17"/><line class="cls-10" x1="47" y1="13" x2="60" y2="13"/><rect class="cls-11" x="85" y="23" width="6" height="15"/><circle class="cls-12" cx="49" cy="85" r="7"/><circle class="cls-13" cx="116" cy="81" r="2"/><circle class="cls-9" cx="103" cy="16" r="2"/><circle class="cls-13" cx="56" cy="47" r="4"/><circle class="cls-7" cx="99" cy="61" r="5"/><circle class="cls-6" cx="120" cy="71" r="3"/></g></g></svg>