<svg xmlns="http://www.w3.org/2000/svg" xmlns:xlink="http://www.w3.org/1999/xlink" viewBox="0 0 128 138"><defs><style>.cls-1,.cls-5{fill:none;}.cls-2{fill:#474f59;}.cls-3{clip-path:url(#clip-path);}.cls-4{fill:#fff;}.cls-5{stroke:#474f59;stroke-miterlimit:10;stroke-width:2px;}.cls-6{fill:#e6e5e5;}.cls-7{fill:#cccbca;}</style><clipPath id="clip-path"><path class="cls-1" d="M128,64A64,64,0,1,1,64,0,64,64,0,0,1,128,64Z"/></clipPath></defs><title>iconosRecurso 15</title><g id="Capa_2" data-name="Capa 2"><g id="Layer_1" data-name="Layer 1"><circle class="cls-2" cx="64" cy="64" r="64"/><g class="cls-3"><path class="cls-4" d="M104,52A38,38,0,1,1,66,14,38,38,0,0,1,104,52Z"/><rect class="cls-4" x="28" y="52" width="20" height="30"/><polygon class="cls-4" points="32 82 18 82 28 56 32 82"/><polygon class="cls-4" points="79 104 30 104 28 82 84 78 79 104"/><polygon class="cls-4" points="97 126 49 138 49 101 90 84 97 126"/><polygon class="cls-4" points="76 97.04 91 91 102 64 76 68 76 97.04"/></g><line class="cls-5" x1="51" y1="67" x2="51" y2="77"/><line class="cls-5" x1="51" y1="62" x2="51" y2="65"/><line class="cls-5" x1="51" y1="81" x2="51" y2="85"/><line class="cls-5" x1="57" y1="76" x2="57" y2="82"/><line class="cls-5" x1="57" y1="59" x2="57" y2="71"/><line class="cls-5" x1="57" y1="84" x2="57" y2="86"/><line class="cls-5" x1="57" y1="92" x2="57" y2="94"/><line class="cls-5" x1="63" y1="80" x2="63" y2="90"/><line class="cls-5" x1="63" y1="93" x2="63" y2="99"/><line class="cls-5" x1="69" y1="79" x2="69" y2="86"/><line class="cls-5" x1="69" y1="75" x2="69" y2="77"/><line class="cls-5" x1="75" y1="84" x2="75" y2="93"/><line class="cls-5" x1="75" y1="95" x2="75" y2="97"/><line class="cls-5" x1="81" y1="78" x2="81" y2="86"/><line class="cls-5" x1="81" y1="88" x2="81" y2="92"/><line class="cls-5" x1="81" y1="74" x2="81" y2="76"/><circle class="cls-6" cx="31" cy="60" r="8"/><circle class="cls-6" cx="39" cy="65" r="3"/><circle class="cls-6" cx="22" cy="63" r="5"/><rect class="cls-6" x="22" y="63" width="17" height="5"/><path class="cls-7" d="M80,37A14,14,0,1,1,66,23,14,14,0,0,1,80,37Z"/><path class="cls-7" d="M53,48a8,8,0,1,1-8-8A8,8,0,0,1,53,48Z"/><path class="cls-7" d="M59,38a8,8,0,1,1-8-8A8,8,0,0,1,59,38Z"/><path class="cls-7" d="M89,38a8,8,0,1,1-8-8A8,8,0,0,1,89,38Z"/><path class="cls-7" d="M79,48a8,8,0,1,0,8-8A8,8,0,0,0,79,48Z"/><rect class="cls-7" x="45" y="40" width="42" height="16"/><circle class="cls-6" cx="87" cy="62" r="10"/><circle class="cls-6" cx="78" cy="67" r="5"/><circle class="cls-6" cx="97" cy="67" r="5"/><circle class="cls-6" cx="104" cy="66" r="6"/><circle class="cls-6" cx="110" cy="69" r="3"/><rect class="cls-6" x="78" y="68" width="32" height="4"/><polygon class="cls-2" points="67 60 60 60 67 43 67 60"/><polygon class="cls-2" points="65 58 72 58 65 75 65 58"/></g></g></svg>