<svg xmlns="http://www.w3.org/2000/svg" xmlns:xlink="http://www.w3.org/1999/xlink" viewBox="0 0 128 138"><defs><style>.cls-1,.cls-10,.cls-9{fill:none;}.cls-2{fill:#f2f2f2;}.cls-3{clip-path:url(#clip-path);}.cls-4{fill:#cccbca;}.cls-5{fill:#fff;}.cls-6{fill:#adecf7;}.cls-7{fill:#76d0de;}.cls-8{fill:#92deeb;}.cls-10,.cls-9{stroke:#474f59;stroke-miterlimit:10;stroke-width:2px;}.cls-10{stroke-dasharray:2 2;}.cls-11{fill:#f77b55;}.cls-12{fill:#fdca5c;}.cls-13{fill:#474f59;}</style><clipPath id="clip-path"><path class="cls-1" d="M128,64A64,64,0,1,1,64,0,64,64,0,0,1,128,64Z"/></clipPath></defs><title>iconosRecurso 7</title><g id="Capa_2" data-name="Capa 2"><g id="Layer_1" data-name="Layer 1"><circle class="cls-2" cx="64" cy="64" r="64"/><g class="cls-3"><path class="cls-4" d="M104,52A38,38,0,1,1,66,14,38,38,0,0,1,104,52Z"/><rect class="cls-4" x="28" y="52" width="20" height="30"/><polygon class="cls-4" points="32 82 18 82 28 56 32 82"/><polygon class="cls-4" points="79 104 30 104 28 82 84 78 79 104"/><polygon class="cls-4" points="97 126 49 138 49 101 90 84 97 126"/><polygon class="cls-4" points="76 97.04 91 91 102 64 76 68 76 97.04"/></g><path class="cls-5" d="M97,52A31,31,0,1,1,66,21,31,31,0,0,1,97,52Z"/><polygon class="cls-6" points="52.5 44 48 36.5 38 48.5 52.5 44"/><polygon class="cls-7" points="55.5 56 65.5 46 48 36.5 55.5 56"/><polygon class="cls-6" points="74.5 37 91.5 55 55.5 56 74.5 37"/><polygon class="cls-7" points="91.5 55 74.5 37 110 39 91.5 55"/><polygon class="cls-8" points="91.5 55 74.5 37 109 25 91.5 55"/><polygon class="cls-8" points="83.5 73 55.5 56 91.5 55 83.5 73"/><polygon class="cls-7" points="99.5 93 83.5 73 91.5 55 99.5 93"/><polyline class="cls-9" points="77 89 77 90 76 90"/><line class="cls-10" x1="74" y1="90" x2="67" y2="90"/><polyline class="cls-9" points="66 90 65 90 65 89"/><line class="cls-10" x1="65" y1="87" x2="65" y2="80"/><polyline class="cls-9" points="65 79 65 78 66 78"/><line class="cls-10" x1="68" y1="78" x2="75" y2="78"/><polyline class="cls-9" points="76 78 77 78 77 79"/><line class="cls-10" x1="77" y1="81" x2="77" y2="88"/><polygon class="cls-11" points="51 32 60 16 69 32 51 32"/><rect class="cls-12" x="44" y="57" width="8" height="8"/><circle class="cls-9" cx="105" cy="58" r="5"/><circle class="cls-5" cx="50" cy="88" r="3"/><circle class="cls-13" cx="28" cy="40" r="5"/></g></g></svg>