<?xml version="1.0" encoding="iso-8859-1"?>
<!-- Generator: Adobe Illustrator 19.0.0, SVG Export Plug-In . SVG Version: 6.00 Build 0)  -->
<svg version="1.1" id="Capa_1" xmlns="http://www.w3.org/2000/svg" xmlns:xlink="http://www.w3.org/1999/xlink" x="0px" y="0px"
	 viewBox="0 0 512 512" style="enable-background:new 0 0 512 512;" xml:space="preserve">
<circle style="fill:#BF83B6
;" cx="256" cy="256" r="256"/>
<path style="fill:#94658d;" d="M512,256c0-19.16-2.121-37.821-6.112-55.779L400,94.333l-26.592,47.074L292,60L112,429.667
	l72.073,72.074C206.893,508.408,231.026,512,256,512C397.385,512,512,397.385,512,256z"/>
<rect x="112" y="94.33" style="fill:#9650AA;" width="288" height="335.33"/>
<g>
	<rect x="256" y="94.33" style="fill:#7A3EB5;" width="144" height="335.33"/>
	<rect x="134.17" y="120.15" style="fill:#64adc3;" width="243.66" height="283.71"/>
</g>
<rect x="256" y="120.15" style="fill:#528C9E;" width="121.83" height="283.71"/>
<polygon style="fill:#FFDA45;" points="256,151.039 288.154,216.191 360.053,226.639 308.027,277.352 320.308,348.961 256,315.152 
	191.692,348.961 203.973,277.352 151.947,226.639 223.846,216.191 "/>
<polygon style="fill:#FFBC36;" points="360.053,226.639 288.154,216.191 256,151.04 256,315.151 320.309,348.96 308.027,277.352 "/>
<rect x="220" y="60" style="fill:#f97b14;" width="72" height="60.15"/>
<rect x="256" y="60" style="fill:#b95d12;" width="36" height="60.15"/>
<g>
</g>
<g>
</g>
<g>
</g>
<g>
</g>
<g>
</g>
<g>
</g>
<g>
</g>
<g>
</g>
<g>
</g>
<g>
</g>
<g>
</g>
<g>
</g>
<g>
</g>
<g>
</g>
<g>
</g>
</svg>
